CommonSerif-Regular.ufo
<glyph name="numbersign" format="2">
  <advance width="465"/>
  <unicode hex="0023"/>
  <outline>
    <contour>
      <point x="91" y="14" type="line"/>
      <point x="103.21" y="9"/>
      <point x="115.79" y="9"/>
      <point x="128" y="14" type="curve"/>
      <point x="221" y="592" type="line"/>
      <point x="208.46" y="597"/>
      <point x="195.54" y="597"/>
      <point x="183" y="592" type="curve"/>
    </contour>
    <contour>
      <point x="242" y="14" type="line"/>
      <point x="254.54" y="9"/>
      <point x="267.46" y="9"/>
      <point x="280" y="14" type="curve"/>
      <point x="371" y="592" type="line"/>
      <point x="358.46" y="597"/>
      <point x="345.54" y="597"/>
      <point x="333" y="592" type="curve"/>
    </contour>
    <contour>
      <point x="230" y="368" type="line"/>
      <point x="230" y="407" type="line"/>
      <point x="57" y="407" type="line" smooth="yes"/>
      <point x="48" y="407"/>
      <point x="38" y="392"/>
      <point x="38" y="382" type="curve" smooth="yes"/>
      <point x="38" y="376"/>
      <point x="41" y="368"/>
      <point x="49" y="368" type="curve" smooth="yes"/>
    </contour>
    <contour>
      <point x="168.96" y="367.954" type="line"/>
      <point x="315.815" y="367.954" type="line"/>
      <point x="315.815" y="406.938" type="line"/>
      <point x="168.96" y="406.938" type="line"/>
    </contour>
    <contour>
      <point x="276" y="368" type="line"/>
      <point x="409" y="368" type="line" smooth="yes"/>
      <point x="421" y="368"/>
      <point x="430" y="383"/>
      <point x="430" y="394" type="curve" smooth="yes"/>
      <point x="430" y="399"/>
      <point x="427" y="407"/>
      <point x="418" y="407" type="curve" smooth="yes"/>
      <point x="276" y="407" type="line"/>
    </contour>
    <contour>
      <point x="218" y="198.988" type="line"/>
      <point x="218" y="237.988" type="line"/>
      <point x="45" y="237.988" type="line" smooth="yes"/>
      <point x="36" y="237.988"/>
      <point x="26" y="222.988"/>
      <point x="26" y="212.988" type="curve" smooth="yes"/>
      <point x="26" y="206.988"/>
      <point x="29" y="198.988"/>
      <point x="37" y="198.988" type="curve" smooth="yes"/>
    </contour>
    <contour>
      <point x="137.831" y="198.988" type="line"/>
      <point x="289.932" y="198.988" type="line"/>
      <point x="289.932" y="238.431" type="line"/>
      <point x="137.831" y="238.431" type="line"/>
    </contour>
    <contour>
      <point x="254.93" y="198.988" type="line"/>
      <point x="387.93" y="198.988" type="line" smooth="yes"/>
      <point x="399.93" y="198.988"/>
      <point x="408.93" y="213.988"/>
      <point x="408.93" y="224.988" type="curve" smooth="yes"/>
      <point x="408.93" y="229.988"/>
      <point x="405.93" y="237.988"/>
      <point x="396.93" y="237.988" type="curve" smooth="yes"/>
      <point x="254.93" y="237.988" type="line"/>
    </contour>
  </outline>
</glyph>
<glyph name="E" format="2">
  <advance width="559"/>
  <unicode hex="0045"/>
  <anchor x="283" y="740" name="top"/>
  <anchor x="319" y="10" name="b.ogonek"/>
  <anchor x="283" y="-60" name="b.minus-60"/>
  <anchor x="358" y="0" name="b.cedilla"/>
  <outline>
    <contour>
      <point x="19" y="-2" type="curve"/>
      <point x="56" y="-1"/>
      <point x="122" y="0"/>
      <point x="154" y="0" type="curve"/>
      <point x="154" y="645" type="line"/>
      <point x="124" y="645"/>
      <point x="59" y="646"/>
      <point x="19" y="647" type="curve"/>
      <point x="13" y="641"/>
      <point x="13" y="620"/>
      <point x="19" y="614" type="curve"/>
      <point x="89" y="611"/>
      <point x="106" y="604"/>
      <point x="106" y="527" type="curve" smooth="yes"/>
      <point x="106" y="120" type="line" smooth="yes"/>
      <point x="106" y="39"/>
      <point x="89" y="34"/>
      <point x="19" y="31" type="curve"/>
      <point x="13" y="25"/>
      <point x="13" y="4"/>
    </contour>
    <contour>
      <point x="283" y="361" type="curve" smooth="yes"/>
      <point x="177" y="361" type="line"/>
      <point x="177" y="323" type="line"/>
      <point x="283" y="323" type="line" smooth="yes"/>
      <point x="368" y="323"/>
      <point x="371" y="300"/>
      <point x="374" y="255" type="curve"/>
      <point x="380" y="249"/>
      <point x="401" y="249"/>
      <point x="407" y="255" type="curve"/>
      <point x="406" y="281"/>
      <point x="405" y="309"/>
      <point x="405" y="343" type="curve" smooth="yes"/>
      <point x="405" y="371"/>
      <point x="406" y="405"/>
      <point x="407" y="429" type="curve"/>
      <point x="401" y="435"/>
      <point x="380" y="435"/>
      <point x="374" y="429" type="curve"/>
      <point x="371" y="374"/>
      <point x="368" y="361"/>
    </contour>
    <contour>
      <point x="150" y="0" type="line"/>
      <point x="365" y="0" type="line" smooth="yes"/>
      <point x="413" y="0"/>
      <point x="485" y="-2"/>
      <point x="493" y="-2" type="curve"/>
      <point x="507" y="48"/>
      <point x="522" y="114"/>
      <point x="530" y="165" type="curve"/>
      <point x="520" y="171"/>
      <point x="508" y="173"/>
      <point x="495" y="170" type="curve"/>
      <point x="475" y="98"/>
      <point x="440" y="39"/>
      <point x="364" y="39" type="curve" smooth="yes"/>
      <point x="248" y="39" type="line" smooth="yes"/>
      <point x="206" y="39"/>
      <point x="192" y="55"/>
      <point x="192" y="102" type="curve" smooth="yes"/>
      <point x="192" y="541" type="line" smooth="yes"/>
      <point x="192" y="585"/>
      <point x="204" y="605"/>
      <point x="258" y="605" type="curve" smooth="yes"/>
      <point x="333" y="605" type="line" smooth="yes"/>
      <point x="408" y="605"/>
      <point x="424" y="565"/>
      <point x="446" y="496" type="curve"/>
      <point x="458" y="494"/>
      <point x="469" y="496"/>
      <point x="479" y="501" type="curve"/>
      <point x="474" y="542"/>
      <point x="459" y="638"/>
      <point x="457" y="646" type="curve"/>
      <point x="457" y="648"/>
      <point x="456" y="649"/>
      <point x="453" y="649" type="curve"/>
      <point x="436" y="646"/>
      <point x="428" y="645"/>
      <point x="404" y="645" type="curve" smooth="yes"/>
      <point x="150" y="645" type="line"/>
    </contour>
  </outline>
</glyph>
<glyph name="I" format="2">
  <advance width="299"/>
  <unicode hex="0049"/>
  <anchor x="148" y="740" name="top"/>
  <anchor x="191" y="10" name="b.ogonek"/>
  <anchor x="148" y="-60" name="b.minus-60"/>
  <outline>
    <contour>
      <point x="106" y="100" type="line"/>
      <point x="192" y="100" type="line"/>
      <point x="192" y="545" type="line"/>
      <point x="106" y="545" type="line"/>
    </contour>
    <contour>
      <point x="106" y="120" type="line"/>
      <point x="106" y="45"/>
      <point x="97" y="34"/>
      <point x="19" y="31" type="curve"/>
      <point x="13" y="25"/>
      <point x="13" y="4"/>
      <point x="19" y="-2" type="curve"/>
      <point x="86" y="-1"/>
      <point x="133" y="0"/>
      <point x="159" y="0" type="curve"/>
      <point x="159" y="120" type="line"/>
    </contour>
    <contour>
      <point x="139" y="0" type="line"/>
      <point x="165" y="0"/>
      <point x="214" y="-1"/>
      <point x="280" y="-2" type="curve"/>
      <point x="286" y="4"/>
      <point x="287" y="25"/>
      <point x="280" y="31" type="curve"/>
      <point x="202" y="34"/>
      <point x="192" y="45"/>
      <point x="192" y="120" type="curve"/>
      <point x="139" y="120" type="line"/>
    </contour>
    <contour>
      <point x="106" y="525" type="curve"/>
      <point x="159" y="525" type="line"/>
      <point x="159" y="645" type="line"/>
      <point x="134" y="645"/>
      <point x="86" y="646"/>
      <point x="19" y="647" type="curve"/>
      <point x="13" y="641"/>
      <point x="13" y="620"/>
      <point x="19" y="614" type="curve"/>
      <point x="97" y="611"/>
      <point x="106" y="600"/>
    </contour>
    <contour>
      <point x="139" y="525" type="line"/>
      <point x="192" y="525" type="line"/>
      <point x="192" y="600"/>
      <point x="202" y="611"/>
      <point x="280" y="614" type="curve"/>
      <point x="286" y="620"/>
      <point x="286" y="641"/>
      <point x="280" y="647" type="curve"/>
      <point x="217" y="646"/>
      <point x="169" y="645"/>
      <point x="139" y="645" type="curve"/>
    </contour>
  </outline>
</glyph>
<glyph name="K" format="2">
  <advance width="638"/>
  <unicode hex="004B"/>
  <anchor x="314" y="740" name="top"/>
  <anchor x="314" y="-60" name="b.minus-60"/>
  <outline>
    <contour>
      <point x="19" y="-2" type="curve"/>
      <point x="56" y="-1"/>
      <point x="122" y="0"/>
      <point x="154" y="0" type="curve"/>
      <point x="154" y="645" type="line"/>
      <point x="124" y="645"/>
      <point x="59" y="646"/>
      <point x="19" y="647" type="curve"/>
      <point x="13" y="641"/>
      <point x="13" y="620"/>
      <point x="19" y="614" type="curve"/>
      <point x="89" y="611"/>
      <point x="106" y="604"/>
      <point x="106" y="527" type="curve" smooth="yes"/>
      <point x="106" y="120" type="line" smooth="yes"/>
      <point x="106" y="39"/>
      <point x="89" y="34"/>
      <point x="19" y="31" type="curve"/>
      <point x="13" y="25"/>
      <point x="13" y="4"/>
    </contour>
    <contour>
      <point x="149.5" y="0" type="line"/>
      <point x="187.5" y="0"/>
      <point x="234" y="-1"/>
      <point x="279" y="-2" type="curve"/>
      <point x="285" y="4"/>
      <point x="285" y="25"/>
      <point x="279" y="31" type="curve"/>
      <point x="209" y="34"/>
      <point x="192" y="39"/>
      <point x="192" y="122" type="curve" smooth="yes"/>
      <point x="192" y="523" type="line" smooth="yes"/>
      <point x="192" y="606"/>
      <point x="209" y="611"/>
      <point x="279" y="614" type="curve"/>
      <point x="285" y="620"/>
      <point x="285" y="641"/>
      <point x="279" y="647" type="curve"/>
      <point x="233" y="646"/>
      <point x="186.5" y="645"/>
      <point x="149.5" y="645" type="curve"/>
    </contour>
    <contour>
      <point x="175" y="309" type="line"/>
      <point x="224" y="309"/>
      <point x="255" y="297"/>
      <point x="275" y="271" type="curve" smooth="yes"/>
      <point x="432" y="73" type="line" smooth="yes"/>
      <point x="452" y="47"/>
      <point x="466" y="20"/>
      <point x="468" y="4" type="curve"/>
      <point x="468" y="1"/>
      <point x="469" y="-2"/>
      <point x="473" y="-2" type="curve"/>
      <point x="493" y="-1"/>
      <point x="506" y="0"/>
      <point x="527" y="0" type="curve" smooth="yes"/>
      <point x="561" y="0"/>
      <point x="595" y="-1"/>
      <point x="628" y="-2" type="curve"/>
      <point x="634" y="4"/>
      <point x="634" y="25"/>
      <point x="628" y="31" type="curve"/>
      <point x="599" y="34"/>
      <point x="571" y="37"/>
      <point x="540" y="73" type="curve" smooth="yes"/>
      <point x="321" y="333" type="line"/>
      <point x="313" y="342"/>
      <point x="308" y="350"/>
      <point x="308" y="358" type="curve" smooth="yes"/>
      <point x="308" y="365"/>
      <point x="308.963" y="372.036"/>
      <point x="343" y="407" type="curve" smooth="yes"/>
      <point x="490" y="558" type="line" smooth="yes"/>
      <point x="536.882" y="606.157"/>
      <point x="576" y="611"/>
      <point x="616" y="614" type="curve"/>
      <point x="622" y="620"/>
      <point x="622" y="641"/>
      <point x="616" y="647" type="curve"/>
      <point x="585" y="646"/>
      <point x="553" y="645"/>
      <point x="521" y="645" type="curve" smooth="yes"/>
      <point x="484" y="645"/>
      <point x="445" y="646"/>
      <point x="408" y="647" type="curve"/>
      <point x="402" y="641"/>
      <point x="402" y="620"/>
      <point x="408" y="614" type="curve"/>
      <point x="444" y="611"/>
      <point x="478.1" y="606.907"/>
      <point x="436" y="562" type="curve" smooth="yes"/>
      <point x="271" y="386" type="line" smooth="yes"/>
      <point x="246.293" y="359.646"/>
      <point x="220" y="346"/>
      <point x="175" y="346" type="curve"/>
    </contour>
  </outline>
</glyph>
<glyph name="n" format="2">
  <advance width="549"/>
  <unicode hex="006E"/>
  <anchor x="250" y="500" name="top"/>
  <anchor x="259" y="-60" name="b.minus-60"/>
  <anchor x="-12" y="658" name="apostrophe"/>
  <outline>
    <contour>
      <point x="30.3001" y="-2" type="curve"/>
      <point x="60.3001" y="-1"/>
      <point x="100.3" y="0"/>
      <point x="140.3" y="0" type="curve" smooth="yes"/>
      <point x="180.3" y="0"/>
      <point x="211.3" y="-1"/>
      <point x="241.3" y="-2" type="curve"/>
      <point x="247.3" y="4"/>
      <point x="247.3" y="25"/>
      <point x="241.3" y="31" type="curve"/>
      <point x="190.3" y="36"/>
      <point x="180.3" y="40"/>
      <point x="180.3" y="122" type="curve"/>
      <point x="100.3" y="122" type="line"/>
      <point x="100.3" y="40"/>
      <point x="90.3001" y="36"/>
      <point x="30.3001" y="31" type="curve"/>
      <point x="24.3001" y="25"/>
      <point x="24.3001" y="4"/>
    </contour>
    <contour>
      <point x="321.3" y="-2" type="curve"/>
      <point x="351.3" y="-1"/>
      <point x="383.3" y="0"/>
      <point x="423.3" y="0" type="curve" smooth="yes"/>
      <point x="463.3" y="0"/>
      <point x="500.3" y="-1"/>
      <point x="530.3" y="-2" type="curve"/>
      <point x="535.3" y="4"/>
      <point x="535.3" y="25"/>
      <point x="530.3" y="31" type="curve"/>
      <point x="474.3" y="36"/>
      <point x="463.3" y="40"/>
      <point x="463.3" y="122" type="curve"/>
      <point x="383.3" y="122" type="line"/>
      <point x="383.3" y="40"/>
      <point x="373.3" y="36"/>
      <point x="321.3" y="31" type="curve"/>
      <point x="316.3" y="25"/>
      <point x="316.3" y="4"/>
    </contour>
    <contour>
      <point x="100.3" y="316" type="curve"/>
      <point x="180.3" y="336" type="line"/>
      <point x="180.3" y="369.727"/>
      <point x="174.3" y="422"/>
      <point x="168.3" y="434" type="curve" smooth="yes"/>
      <point x="165.81" y="438.981"/>
      <point x="162.127" y="442"/>
      <point x="156.3" y="442" type="curve"/>
      <point x="119.165" y="427.411"/>
      <point x="88.6776" y="420.223"/>
      <point x="33.3001" y="413" type="curve"/>
      <point x="31.653" y="408.059"/>
      <point x="32.7546" y="392.636"/>
      <point x="35.3001" y="385" type="curve"/>
      <point x="92.7124" y="379.684"/>
      <point x="100.3" y="370.746"/>
    </contour>
    <contour>
      <point x="100.3" y="110" type="line"/>
      <point x="180.3" y="110" type="line"/>
      <point x="180.3" y="340" type="line"/>
      <point x="100.3" y="320" type="line"/>
    </contour>
    <contour>
      <point x="383.3" y="110" type="line"/>
      <point x="463.3" y="110" type="line"/>
      <point x="463.3" y="271" type="line" smooth="yes"/>
      <point x="463.3" y="390.446"/>
      <point x="431.22" y="439"/>
      <point x="352.3" y="439" type="curve" smooth="yes"/>
      <point x="296.562" y="439"/>
      <point x="231.072" y="392.636"/>
      <point x="168.3" y="336" type="curve"/>
      <point x="180.3" y="311" type="line"/>
      <point x="237.131" y="362.919"/>
      <point x="275.208" y="387"/>
      <point x="311.831" y="387" type="curve" smooth="yes"/>
      <point x="359.667" y="387"/>
      <point x="383.3" y="345.915"/>
      <point x="383.3" y="274" type="curve" smooth="yes"/>
    </contour>
  </outline>
</glyph>
<glyph name="OE" format="2">
  <advance width="864"/>
  <unicode hex="0152"/>
  <anchor x="458" y="740" name="top"/>
  <outline>
    <contour>
      <point x="352" y="-2" type="curve" smooth="yes"/>
      <point x="358" y="-2"/>
      <point x="415" y="0"/>
      <point x="455" y="0" type="curve"/>
      <point x="455" y="645" type="line"/>
      <point x="418" y="645"/>
      <point x="364" y="646"/>
      <point x="346" y="646" type="curve" smooth="yes"/>
      <point x="160" y="646"/>
      <point x="36" y="498"/>
      <point x="36" y="318" type="curve" smooth="yes"/>
      <point x="36" y="138"/>
      <point x="164" y="-2"/>
    </contour>
    <contour>
      <point x="350" y="32" type="line" smooth="yes"/>
      <point x="247" y="32"/>
      <point x="130" y="119.848"/>
      <point x="130" y="326.491" type="curve" smooth="yes"/>
      <point x="130" y="540.121"/>
      <point x="231" y="610"/>
      <point x="328" y="610" type="curve" smooth="yes"/>
      <point x="363" y="610" type="line" smooth="yes"/>
      <point x="401" y="610"/>
      <point x="412.062" y="604.01"/>
      <point x="412" y="573.064" type="curve" smooth="yes"/>
      <point x="411" y="71.9309" type="line" smooth="yes"/>
      <point x="410.944" y="43.9793"/>
      <point x="403" y="32"/>
      <point x="363" y="32" type="curve" smooth="yes"/>
    </contour>
    <contour>
      <point x="565" y="368" type="curve" smooth="yes"/>
      <point x="459" y="368" type="line"/>
      <point x="459" y="330" type="line"/>
      <point x="565" y="330" type="line" smooth="yes"/>
      <point x="650" y="330"/>
      <point x="653" y="307"/>
      <point x="656" y="262" type="curve"/>
      <point x="662" y="256"/>
      <point x="683" y="256"/>
      <point x="689" y="262" type="curve"/>
      <point x="688" y="288"/>
      <point x="687" y="316"/>
      <point x="687" y="350" type="curve" smooth="yes"/>
      <point x="687" y="378"/>
      <point x="688" y="412"/>
      <point x="689" y="436" type="curve"/>
      <point x="683" y="442"/>
      <point x="662" y="442"/>
      <point x="656" y="436" type="curve"/>
      <point x="653" y="381"/>
      <point x="650" y="368"/>
    </contour>
    <contour>
      <point x="455" y="0" type="line"/>
      <point x="670" y="0" type="line" smooth="yes"/>
      <point x="718" y="0"/>
      <point x="790" y="-2"/>
      <point x="798" y="-2" type="curve"/>
      <point x="812" y="48"/>
      <point x="827" y="114"/>
      <point x="835" y="165" type="curve"/>
      <point x="825" y="171"/>
      <point x="813" y="173"/>
      <point x="800" y="170" type="curve"/>
      <point x="780" y="98"/>
      <point x="745" y="39"/>
      <point x="669" y="39" type="curve" smooth="yes"/>
      <point x="553" y="39" type="line" smooth="yes"/>
      <point x="511" y="39"/>
      <point x="497" y="55"/>
      <point x="497" y="102" type="curve" smooth="yes"/>
      <point x="497" y="541" type="line" smooth="yes"/>
      <point x="497" y="585"/>
      <point x="509" y="605"/>
      <point x="563" y="605" type="curve" smooth="yes"/>
      <point x="638" y="605" type="line" smooth="yes"/>
      <point x="713" y="605"/>
      <point x="729" y="565"/>
      <point x="751" y="496" type="curve"/>
      <point x="763" y="494"/>
      <point x="774" y="496"/>
      <point x="784" y="501" type="curve"/>
      <point x="779" y="542"/>
      <point x="764" y="638"/>
      <point x="762" y="646" type="curve"/>
      <point x="762" y="648"/>
      <point x="761" y="649"/>
      <point x="758" y="649" type="curve"/>
      <point x="741" y="646"/>
      <point x="733" y="645"/>
      <point x="709" y="645" type="curve" smooth="yes"/>
      <point x="455" y="645" type="line"/>
    </contour>
  </outline>
</glyph>
<glyph name="longs" format="2">
  <advance width="291"/>
  <unicode hex="017F"/>
  <anchor x="233" y="740" name="top"/>
  <outline>
    <contour>
      <point x="173" y="122" type="curve" smooth="yes"/>
      <point x="173" y="474" type="line" smooth="yes"/>
      <point x="173" y="594"/>
      <point x="189" y="664"/>
      <point x="242" y="664" type="curve" smooth="yes"/>
      <point x="294.791" y="664"/>
      <point x="256.277" y="584"/>
      <point x="323" y="584" type="curve" smooth="yes"/>
      <point x="349" y="584"/>
      <point x="358" y="605"/>
      <point x="358" y="622" type="curve" smooth="yes"/>
      <point x="358" y="670.866"/>
      <point x="288.665" y="698"/>
      <point x="249" y="698" type="curve" smooth="yes"/>
      <point x="159.735" y="698"/>
      <point x="92.8653" y="603.457"/>
      <point x="92.9007" y="477" type="curve" smooth="yes"/>
      <point x="93" y="122" type="line" smooth="yes"/>
      <point x="93.0232" y="39"/>
      <point x="82" y="34"/>
      <point x="28" y="31" type="curve"/>
      <point x="22" y="25"/>
      <point x="22" y="4"/>
      <point x="28" y="-2" type="curve"/>
      <point x="70" y="-1"/>
      <point x="92" y="0"/>
      <point x="133" y="0" type="curve" smooth="yes"/>
      <point x="179" y="0"/>
      <point x="209" y="-1"/>
      <point x="252" y="-2" type="curve"/>
      <point x="258" y="4"/>
      <point x="258" y="25"/>
      <point x="252" y="31" type="curve"/>
      <point x="184" y="34"/>
      <point x="173" y="39"/>
    </contour>
    <contour>
      <point x="107.9" y="429.304" type="line"/>
      <point x="52" y="429.304" type="line" smooth="yes"/>
      <point x="34" y="429.304"/>
      <point x="29" y="417"/>
      <point x="29" y="409" type="curve" smooth="yes"/>
      <point x="29" y="395" type="line" smooth="yes"/>
      <point x="29" y="391"/>
      <point x="30" y="390"/>
      <point x="34" y="390" type="curve" smooth="yes"/>
      <point x="108" y="390" type="line"/>
    </contour>
  </outline>
</glyph>
<glyph name="Aringacute" format="2">
  <advance width="695"/>
  <unicode hex="01FA"/>
  <outline>
    <component base="A" xOffset="2"/>
    <contour>
      <point x="360" y="629" type="curve" smooth="yes"/>
      <point x="404" y="629"/>
      <point x="447" y="667"/>
      <point x="447" y="712" type="curve"/>
      <point x="454" y="714"/>
      <point x="461" y="717"/>
      <point x="471" y="721" type="curve" smooth="yes"/>
      <point x="615" y="779" type="line"/>
      <point x="602" y="800"/>
      <point x="582" y="818"/>
      <point x="553" y="831" type="curve"/>
      <point x="438" y="751" type="line"/>
      <point x="423" y="780"/>
      <point x="392" y="799"/>
      <point x="359" y="799" type="curve" smooth="yes"/>
      <point x="313" y="799"/>
      <point x="271" y="760"/>
      <point x="271" y="714" type="curve" smooth="yes"/>
      <point x="271" y="667"/>
      <point x="315" y="629"/>
    </contour>
    <contour>
      <point x="359" y="661" type="curve" smooth="yes"/>
      <point x="328" y="661"/>
      <point x="311" y="686"/>
      <point x="311" y="714" type="curve" smooth="yes"/>
      <point x="311" y="744"/>
      <point x="328" y="767"/>
      <point x="359" y="767" type="curve" smooth="yes"/>
      <point x="389" y="767"/>
      <point x="407" y="745"/>
      <point x="407" y="714" type="curve" smooth="yes"/>
      <point x="407" y="686"/>
      <point x="390" y="661"/>
    </contour>
  </outline>
</glyph>
<glyph name="uni0223" format="2">
  <advance width="468"/>
  <unicode hex="0223"/>
  <outline>
    <contour>
      <point x="231" y="-12" type="curve" smooth="yes"/>
      <point x="354" y="-12"/>
      <point x="428" y="58"/>
      <point x="428" y="175" type="curve" smooth="yes"/>
      <point x="428" y="241"/>
      <point x="385" y="297"/>
      <point x="282" y="368" type="curve"/>
      <point x="337" y="389"/>
      <point x="396" y="472"/>
      <point x="396" y="530" type="curve" smooth="yes"/>
      <point x="396" y="586"/>
      <point x="365" y="631"/>
      <point x="313" y="652" type="curve"/>
      <point x="297" y="625" type="line"/>
      <point x="320" y="603"/>
      <point x="336" y="564"/>
      <point x="336" y="530" type="curve" smooth="yes"/>
      <point x="336" y="487"/>
      <point x="292" y="411"/>
      <point x="253" y="389" type="curve"/>
      <point x="240" y="397"/>
      <point x="126" y="467"/>
      <point x="126" y="538" type="curve" smooth="yes"/>
      <point x="126" y="570"/>
      <point x="142" y="602"/>
      <point x="169" y="624" type="curve"/>
      <point x="148" y="649" type="line"/>
      <point x="93" y="625"/>
      <point x="59" y="574"/>
      <point x="59" y="517" type="curve" smooth="yes"/>
      <point x="59" y="456"/>
      <point x="92" y="409"/>
      <point x="183" y="338" type="curve"/>
      <point x="106" y="304"/>
      <point x="41" y="215"/>
      <point x="41" y="145" type="curve" smooth="yes"/>
      <point x="41" y="54"/>
      <point x="120" y="-12"/>
    </contour>
    <contour>
      <point x="233" y="14" type="curve" smooth="yes"/>
      <point x="158" y="14"/>
      <point x="105" y="72"/>
      <point x="105" y="154" type="curve" smooth="yes"/>
      <point x="105" y="208"/>
      <point x="136" y="254"/>
      <point x="213" y="319" type="curve"/>
      <point x="328" y="233"/>
      <point x="360" y="194"/>
      <point x="360" y="141" type="curve" smooth="yes"/>
      <point x="360" y="59"/>
      <point x="316" y="14"/>
    </contour>
  </outline>
</glyph>
<glyph name="uni0258" format="2">
  <advance width="427"/>
  <unicode hex="0258"/>
  <outline>
    <contour>
      <point x="57" y="96" type="curve"/>
      <point x="45" y="95"/>
      <point x="37" y="87"/>
      <point x="34" y="77" type="curve"/>
      <point x="74" y="25"/>
      <point x="111" y="-12"/>
      <point x="187" y="-12" type="curve" smooth="yes"/>
      <point x="194" y="-12"/>
      <point x="201" y="-12"/>
      <point x="207" y="-11" type="curve"/>
      <point x="303" y="0"/>
      <point x="394" y="83"/>
      <point x="406" y="189" type="curve" smooth="yes"/>
      <point x="407" y="197"/>
      <point x="407" y="204"/>
      <point x="407" y="212" type="curve" smooth="yes"/>
      <point x="407" y="370"/>
      <point x="327" y="437"/>
      <point x="227" y="437" type="curve" smooth="yes"/>
      <point x="216" y="437"/>
      <point x="205.997" y="436.031"/>
      <point x="196" y="435" type="curve" smooth="yes"/>
      <point x="79.9968" y="423.032"/>
      <point x="37" y="341"/>
      <point x="37" y="263" type="curve" smooth="yes"/>
      <point x="37" y="252"/>
      <point x="44" y="246"/>
      <point x="56" y="246" type="curve" smooth="yes"/>
      <point x="63" y="246"/>
      <point x="71" y="245.942"/>
      <point x="78" y="246" type="curve" smooth="yes"/>
      <point x="320" y="248" type="line"/>
      <point x="320" y="235"/>
      <point x="319" y="223"/>
      <point x="319" y="212" type="curve"/>
      <point x="308" y="86"/>
      <point x="242" y="37"/>
      <point x="192" y="37" type="curve" smooth="yes"/>
      <point x="142" y="37"/>
      <point x="106" y="52"/>
      <point x="73" y="81" type="curve"/>
      <point x="68" y="85"/>
      <point x="62" y="91"/>
    </contour>
    <contour>
      <point x="123" y="299" type="curve" smooth="yes"/>
      <point x="123" y="374"/>
      <point x="167" y="399"/>
      <point x="204" y="403" type="curve"/>
      <point x="208" y="404"/>
      <point x="213" y="404"/>
      <point x="217" y="404" type="curve" smooth="yes"/>
      <point x="241" y="404"/>
      <point x="298" y="400"/>
      <point x="317" y="287" type="curve"/>
      <point x="138" y="285" type="line" smooth="yes"/>
      <point x="128" y="284.888"/>
      <point x="123" y="290"/>
    </contour>
  </outline>
</glyph>
<glyph name="uni02A1" format="2">
  <advance width="429"/>
  <unicode hex="02A1"/>
  <outline>
    <contour>
      <point x="167" y="110" type="line"/>
      <point x="252" y="110" type="line"/>
      <point x="252" y="240" type="line" smooth="yes"/>
      <point x="252" y="397"/>
      <point x="394" y="373"/>
      <point x="394" y="531" type="curve" smooth="yes"/>
      <point x="394" y="613"/>
      <point x="326" y="656"/>
      <point x="223" y="656" type="curve" smooth="yes"/>
      <point x="126" y="656"/>
      <point x="28" y="593"/>
      <point x="28" y="520" type="curve" smooth="yes"/>
      <point x="28" y="488"/>
      <point x="49" y="471"/>
      <point x="69" y="471" type="curve" smooth="yes"/>
      <point x="92" y="471"/>
      <point x="108" y="482"/>
      <point x="108" y="500" type="curve" smooth="yes"/>
      <point x="108" y="526"/>
      <point x="101" y="530"/>
      <point x="101" y="548" type="curve" smooth="yes"/>
      <point x="101" y="588"/>
      <point x="162" y="620"/>
      <point x="211" y="620" type="curve" smooth="yes"/>
      <point x="265" y="620"/>
      <point x="315" y="595"/>
      <point x="315" y="521" type="curve" smooth="yes"/>
      <point x="315" y="389"/>
      <point x="167" y="416"/>
      <point x="167" y="223" type="curve" smooth="yes"/>
    </contour>
    <contour>
      <point x="55" y="238" type="curve" smooth="yes"/>
      <point x="355" y="238" type="line"/>
      <point x="358" y="245"/>
      <point x="360" y="250"/>
      <point x="360" y="257" type="curve" smooth="yes"/>
      <point x="360" y="263"/>
      <point x="359" y="270"/>
      <point x="355" y="277" type="curve"/>
      <point x="56" y="277" type="line"/>
      <point x="52" y="271"/>
      <point x="50" y="265"/>
      <point x="50" y="257" type="curve" smooth="yes"/>
      <point x="50" y="251"/>
      <point x="46.9377" y="238"/>
    </contour>
    <contour>
      <point x="95" y="-2" type="curve"/>
      <point x="128" y="-1"/>
      <point x="172" y="0"/>
      <point x="212" y="0" type="curve"/>
      <point x="212" y="122" type="line"/>
      <point x="167" y="122" type="line"/>
      <point x="167" y="40"/>
      <point x="156" y="35"/>
      <point x="95" y="31" type="curve"/>
      <point x="89" y="25"/>
      <point x="89" y="4"/>
    </contour>
    <contour>
      <point x="207" y="0" type="line"/>
      <point x="247" y="0"/>
      <point x="291" y="-1"/>
      <point x="324" y="-2" type="curve"/>
      <point x="330" y="4"/>
      <point x="330" y="25"/>
      <point x="324" y="31" type="curve"/>
      <point x="263" y="35"/>
      <point x="252" y="40"/>
      <point x="252" y="122" type="curve"/>
      <point x="207" y="122" type="line"/>
    </contour>
  </outline>
</glyph>
<glyph name="uni02BC" format="2">
  <advance width="175"/>
  <unicode hex="02BC"/>
  <outline>
    <contour>
      <point x="38" y="500" type="curve"/>
      <point x="96.6496" y="507.717"/>
      <point x="144" y="547.217"/>
      <point x="144" y="609" type="curve" smooth="yes"/>
      <point x="144" y="651.469"/>
      <point x="116.121" y="681.963"/>
      <point x="77.9903" y="681.963" type="curve" smooth="yes"/>
      <point x="50.3035" y="681.963"/>
      <point x="31" y="665.217"/>
      <point x="31" y="641" type="curve" smooth="yes"/>
      <point x="31" y="611.718"/>
      <point x="59.7396" y="600"/>
      <point x="86.6379" y="600" type="curve" smooth="yes"/>
      <point x="102.883" y="600"/>
      <point x="110.217" y="593.567"/>
      <point x="110.217" y="579.318" type="curve" smooth="yes"/>
      <point x="110.217" y="555.873"/>
      <point x="71.7733" y="527.619"/>
      <point x="33" y="520" type="curve"/>
      <point x="33" y="513"/>
      <point x="34" y="504"/>
    </contour>
  </outline>
</glyph>
<glyph name="uni031A" format="2">
  <unicode hex="031A"/>
  <anchor x="-245" y="500" name="_top"/>
  <outline>
    <contour>
      <point x="-163.893" y="511.165" type="curve"/>
      <point x="-163.893" y="658.165" type="line"/>
      <point x="-174.893" y="670.165" type="line"/>
      <point x="-329.074" y="670.165" type="line"/>
      <point x="-337.893" y="661.832"/>
      <point x="-339.893" y="655.165"/>
      <point x="-339.893" y="650.165" type="curve" smooth="yes"/>
      <point x="-339.893" y="645.165"/>
      <point x="-337.893" y="634.165"/>
      <point x="-327.893" y="629.165" type="curve"/>
      <point x="-207.893" y="629.165" type="line"/>
      <point x="-207.893" y="507.165" type="line"/>
      <point x="-198.893" y="499.165"/>
      <point x="-188.893" y="498.165"/>
      <point x="-182.893" y="498.165" type="curve" smooth="yes"/>
      <point x="-177.893" y="498.165"/>
      <point x="-168.893" y="502.165"/>
    </contour>
  </outline>
</glyph>
<glyph name="uni0342" format="2">
  <unicode hex="0342"/>
  <anchor x="-241" y="500" name="_t.gr_UC"/>
  <anchor x="-241" y="500" name="_t.gr_LC"/>
  <outline>
    <contour>
      <point x="-182" y="551" type="curve" smooth="yes"/>
      <point x="-208.242" y="551"/>
      <point x="-226.727" y="563.511"/>
      <point x="-245.096" y="577.89" type="curve" smooth="yes"/>
      <point x="-271.288" y="598.391"/>
      <point x="-287.21" y="604"/>
      <point x="-304.747" y="604" type="curve" smooth="yes"/>
      <point x="-344.582" y="604"/>
      <point x="-370.189" y="572.631"/>
      <point x="-386" y="506" type="curve"/>
      <point x="-380.523" y="500.523"/>
      <point x="-371.161" y="498.789"/>
      <point x="-359" y="501" type="curve"/>
      <point x="-347.988" y="537.338"/>
      <point x="-336.812" y="549"/>
      <point x="-313" y="549" type="curve" smooth="yes"/>
      <point x="-293.838" y="549"/>
      <point x="-275.515" y="542.845"/>
      <point x="-245.874" y="521.018" type="curve" smooth="yes"/>
      <point x="-228.395" y="508.147"/>
      <point x="-212.082" y="498"/>
      <point x="-190.703" y="498" type="curve" smooth="yes"/>
      <point x="-151.636" y="498"/>
      <point x="-120.777" y="533.116"/>
      <point x="-108" y="597" type="curve"/>
      <point x="-114.875" y="601.583"/>
      <point x="-125.242" y="603.887"/>
      <point x="-135" y="603" type="curve"/>
      <point x="-148.427" y="562.719"/>
      <point x="-159.019" y="551"/>
    </contour>
  </outline>
</glyph>
<glyph name="uni0496" format="2">
  <advance width="897"/>
  <unicode hex="0496"/>
  <outline>
    <component base="uni0416"/>
    <contour>
      <point x="756.147" y="11" type="line"/>
      <point x="817.496" y="-25.1846"/>
      <point x="855.199" y="-58.8913"/>
      <point x="868" y="-139" type="curve"/>
      <point x="879" y="-142"/>
      <point x="888" y="-141"/>
      <point x="895" y="-137" type="curve"/>
      <point x="889" y="16" type="line" smooth="yes"/>
      <point x="888" y="33"/>
      <point x="876" y="37"/>
      <point x="866.493" y="37" type="curve" smooth="yes"/>
      <point x="852" y="37"/>
      <point x="841.693" y="39.983"/>
      <point x="831.693" y="44.983" type="curve"/>
    </contour>
  </outline>
</glyph>
<glyph name="uni04A1" format="2">
  <advance width="572"/>
  <unicode hex="04A1"/>
  <outline>
    <contour>
      <point x="108" y="-2" type="curve"/>
      <point x="141" y="-1"/>
      <point x="185" y="0"/>
      <point x="225" y="0" type="curve"/>
      <point x="225" y="122" type="line"/>
      <point x="180" y="122" type="line"/>
      <point x="180" y="40"/>
      <point x="169" y="35"/>
      <point x="108" y="31" type="curve"/>
      <point x="102" y="25"/>
      <point x="102" y="4"/>
    </contour>
    <contour>
      <point x="215" y="0" type="line"/>
      <point x="255" y="0"/>
      <point x="299" y="-1"/>
      <point x="332" y="-2" type="curve"/>
      <point x="338" y="4"/>
      <point x="338" y="25"/>
      <point x="332" y="31" type="curve"/>
      <point x="271" y="35"/>
      <point x="260" y="40"/>
      <point x="260" y="122" type="curve"/>
      <point x="215" y="122" type="line"/>
    </contour>
    <contour>
      <point x="260" y="110" type="line"/>
      <point x="260" y="362" type="line" smooth="yes"/>
      <point x="260" y="397"/>
      <point x="283" y="402"/>
      <point x="314" y="402" type="curve"/>
      <point x="319" y="412"/>
      <point x="319" y="420"/>
      <point x="317" y="431" type="curve"/>
      <point x="303" y="430"/>
      <point x="260" y="429"/>
      <point x="221" y="429" type="curve" smooth="yes"/>
      <point x="194" y="429"/>
      <point x="166" y="430"/>
      <point x="139" y="431" type="curve"/>
      <point x="42" y="431" type="line"/>
      <point x="24" y="297" type="line"/>
      <point x="29" y="295"/>
      <point x="35" y="295"/>
      <point x="41" y="297" type="curve"/>
      <point x="67" y="398"/>
      <point x="91" y="401"/>
      <point x="145" y="401" type="curve" smooth="yes"/>
      <point x="171" y="401"/>
      <point x="180" y="381"/>
      <point x="180" y="358" type="curve" smooth="yes"/>
      <point x="180" y="110" type="line"/>
    </contour>
    <contour>
      <point x="249" y="209" type="line"/>
      <point x="266" y="209" type="line" smooth="yes"/>
      <point x="311" y="209"/>
      <point x="341" y="188"/>
      <point x="363" y="141" type="curve" smooth="yes"/>
      <point x="406" y="51" type="line" smooth="yes"/>
      <point x="419" y="24"/>
      <point x="439" y="-1"/>
      <point x="459" y="-2" type="curve"/>
      <point x="467" y="-2"/>
      <point x="537" y="1"/>
      <point x="557" y="0" type="curve"/>
      <point x="560" y="3"/>
      <point x="562" y="10"/>
      <point x="562" y="17" type="curve" smooth="yes"/>
      <point x="562" y="24"/>
      <point x="560" y="30"/>
      <point x="557" y="33" type="curve"/>
      <point x="518" y="35"/>
      <point x="510" y="41"/>
      <point x="493" y="73" type="curve" smooth="yes"/>
      <point x="448" y="158" type="line" smooth="yes"/>
      <point x="423" y="205"/>
      <point x="388" y="233"/>
      <point x="342" y="233" type="curve"/>
      <point x="342" y="236" type="line"/>
      <point x="371" y="252"/>
      <point x="393" y="285"/>
      <point x="404" y="312" type="curve" smooth="yes"/>
      <point x="421" y="353"/>
      <point x="433" y="368"/>
      <point x="451" y="368" type="curve" smooth="yes"/>
      <point x="468" y="368"/>
      <point x="480" y="354"/>
      <point x="501" y="354" type="curve" smooth="yes"/>
      <point x="528" y="354"/>
      <point x="540" y="376"/>
      <point x="540" y="395" type="curve" smooth="yes"/>
      <point x="540" y="418"/>
      <point x="522" y="438"/>
      <point x="488" y="438" type="curve" smooth="yes"/>
      <point x="445" y="438"/>
      <point x="410" y="406"/>
      <point x="380" y="341" type="curve" smooth="yes"/>
      <point x="358" y="293"/>
      <point x="336" y="245"/>
      <point x="281" y="245" type="curve" smooth="yes"/>
      <point x="249" y="245" type="line"/>
    </contour>
  </outline>
</glyph>
<glyph name="uni1D35" format="2">
  <advance width="194"/>
  <unicode hex="1D35"/>
  <outline>
    <contour>
      <point x="18" y="358" type="curve"/>
      <point x="45" y="359"/>
      <point x="75" y="359"/>
      <point x="97" y="359" type="curve" smooth="yes"/>
      <point x="119" y="359"/>
      <point x="149" y="359"/>
      <point x="176" y="358" type="curve"/>
      <point x="180" y="362"/>
      <point x="180" y="374"/>
      <point x="176" y="378" type="curve"/>
      <point x="134" y="380"/>
      <point x="123" y="383"/>
      <point x="123" y="434" type="curve" smooth="yes"/>
      <point x="123" y="678" type="line" smooth="yes"/>
      <point x="123" y="728"/>
      <point x="134" y="733"/>
      <point x="176" y="733" type="curve"/>
      <point x="180" y="737"/>
      <point x="180" y="750"/>
      <point x="176" y="753" type="curve"/>
      <point x="149" y="752"/>
      <point x="120" y="752"/>
      <point x="97" y="752" type="curve" smooth="yes"/>
      <point x="76" y="752"/>
      <point x="46" y="752"/>
      <point x="18" y="753" type="curve"/>
      <point x="14" y="750"/>
      <point x="14" y="737"/>
      <point x="18" y="733" type="curve"/>
      <point x="60" y="733"/>
      <point x="71" y="728"/>
      <point x="71" y="678" type="curve" smooth="yes"/>
      <point x="71" y="434" type="line" smooth="yes"/>
      <point x="71" y="383"/>
      <point x="60" y="380"/>
      <point x="18" y="378" type="curve"/>
      <point x="14" y="374"/>
      <point x="14" y="362"/>
    </contour>
  </outline>
</glyph>
<glyph name="uni1FDF" format="2">
  <advance width="356"/>
  <unicode hex="1FDF"/>
  <anchor x="163" y="500" name="_t.gr_LC"/>
  <outline>
    <component base="uni02BC" xScale="-1" xOffset="245.5" yOffset="10"/>
    <contour>
      <point x="242.813" y="743.003" type="curve" smooth="yes"/>
      <point x="223.813" y="743.003"/>
      <point x="208.675" y="752.806"/>
      <point x="192.813" y="764.003" type="curve" smooth="yes"/>
      <point x="174.673" y="776.808"/>
      <point x="154.813" y="790.003"/>
      <point x="125.813" y="790.003" type="curve" smooth="yes"/>
      <point x="84.8126" y="790.003"/>
      <point x="63.8126" y="757.003"/>
      <point x="50.8126" y="702.003" type="curve"/>
      <point x="56.2871" y="698.848"/>
      <point x="64.2698" y="697.403"/>
      <point x="72.8126" y="697.003" type="curve"/>
      <point x="83.8126" y="727.003"/>
      <point x="97.8126" y="743.003"/>
      <point x="118.813" y="743.003" type="curve" smooth="yes"/>
      <point x="137.813" y="743.003"/>
      <point x="154.582" y="731.65"/>
      <point x="172.813" y="720.003" type="curve" smooth="yes"/>
      <point x="190.589" y="708.646"/>
      <point x="210.813" y="697.003"/>
      <point x="231.813" y="697.003" type="curve" smooth="yes"/>
      <point x="274.813" y="697.003"/>
      <point x="298.813" y="727.003"/>
      <point x="310.813" y="783.003" type="curve"/>
      <point x="304.529" y="787.828"/>
      <point x="297.848" y="790.003"/>
      <point x="288.813" y="790.003" type="curve"/>
      <point x="275.813" y="756.003"/>
      <point x="262.813" y="743.003"/>
    </contour>
  </outline>
</glyph>
<glyph name="turkishlira" format="2">
  <advance width="471"/>
  <unicode hex="20BA"/>
  <outline>
    <contour>
      <point x="157.5" y="0" type="line"/>
      <point x="162.232" y="0" type="line" smooth="yes"/>
      <point x="316.536" y="0"/>
      <point x="428.06" y="110.704"/>
      <point x="449.044" y="284.121" type="curve"/>
      <point x="448.092" y="285.879" type="line"/>
      <point x="409.074" y="285.879"/>
      <point x="364.938" y="266.539"/>
      <point x="364.938" y="249.441" type="curve"/>
      <point x="371.857" y="229.187"/>
      <point x="374.978" y="210.419"/>
      <point x="374.956" y="193.122" type="curve" smooth="yes"/>
      <point x="374.832" y="98.7216"/>
      <point x="291.066" y="48.1238"/>
      <point x="210" y="38.7163" type="curve"/>
      <point x="203.635" y="38.9743"/>
      <point x="200" y="42.6096"/>
      <point x="200" y="48.5937" type="curve" smooth="yes"/>
      <point x="200" y="523" type="line" smooth="yes"/>
      <point x="200" y="606"/>
      <point x="217" y="611"/>
      <point x="287" y="614" type="curve"/>
      <point x="293" y="620"/>
      <point x="293" y="641"/>
      <point x="287" y="647" type="curve"/>
      <point x="242" y="646"/>
      <point x="195.5" y="645"/>
      <point x="157.5" y="645" type="curve"/>
    </contour>
    <contour>
      <point x="115" y="40" type="line" smooth="yes"/>
      <point x="115" y="15.6221"/>
      <point x="131.301" y="0"/>
      <point x="157.5" y="0" type="curve"/>
      <point x="157.5" y="645" type="line"/>
      <point x="127.5" y="645"/>
      <point x="68" y="646"/>
      <point x="28" y="647" type="curve"/>
      <point x="22" y="641"/>
      <point x="22" y="620"/>
      <point x="28" y="614" type="curve"/>
      <point x="98" y="611"/>
      <point x="115" y="604"/>
      <point x="115" y="527" type="curve" smooth="yes"/>
    </contour>
    <contour>
      <point x="187.006" y="382.507" type="line"/>
      <point x="337" y="469" type="line"/>
      <point x="337" y="479"/>
      <point x="329.677" y="494.741"/>
      <point x="319" y="499" type="curve"/>
      <point x="186.976" y="423.558" type="line"/>
    </contour>
    <contour>
      <point x="32" y="294" type="curve"/>
      <point x="127.985" y="349.509" type="line"/>
      <point x="128.008" y="390.47" type="line"/>
      <point x="14" y="325" type="line"/>
      <point x="14" y="310.302"/>
      <point x="22.7051" y="299.27"/>
    </contour>
    <contour>
      <point x="187.006" y="282.507" type="line"/>
      <point x="337" y="369" type="line"/>
      <point x="337" y="379"/>
      <point x="329.677" y="394.741"/>
      <point x="319" y="399" type="curve"/>
      <point x="186.976" y="323.558" type="line"/>
    </contour>
    <contour>
      <point x="32" y="194" type="curve"/>
      <point x="127.985" y="249.509" type="line"/>
      <point x="128.008" y="290.47" type="line"/>
      <point x="14" y="225" type="line"/>
      <point x="14" y="210.302"/>
      <point x="22.7051" y="199.27"/>
    </contour>
  </outline>
</glyph>
<glyph name="uni21D8" format="2">
  <advance width="862"/>
  <unicode hex="21D8"/>
  <outline>
    <contour>
      <point x="634" y="11" type="curve"/>
      <point x="86" y="559" type="line"/>
      <point x="51" y="525" type="line"/>
      <point x="575" y="1" type="line"/>
      <point x="550" y="-5"/>
      <point x="524" y="-14"/>
      <point x="498" y="-24" type="curve"/>
      <point x="525" y="-51" type="line"/>
      <point x="539" y="-50"/>
      <point x="553" y="-49"/>
      <point x="566" y="-49" type="curve"/>
      <point x="606" y="-48"/>
      <point x="640.962" y="-48.4042"/>
      <point x="671" y="-51" type="curve" smooth="yes"/>
      <point x="721.967" y="-55.4044"/>
      <point x="763" y="-66"/>
      <point x="799" y="-83" type="curve"/>
      <point x="815" y="-67" type="line"/>
      <point x="801" y="-37"/>
      <point x="791" y="3"/>
      <point x="786" y="45" type="curve" smooth="yes"/>
      <point x="780" y="87"/>
      <point x="779" y="133"/>
      <point x="781" y="176" type="curve"/>
      <point x="781" y="186"/>
      <point x="782" y="197"/>
      <point x="783" y="207" type="curve"/>
      <point x="755" y="235" type="line"/>
      <point x="745" y="208"/>
      <point x="737" y="183"/>
      <point x="730" y="158" type="curve"/>
      <point x="208" y="681" type="line"/>
      <point x="173" y="646" type="line"/>
      <point x="720" y="100" type="line"/>
      <point x="719" y="90"/>
      <point x="718" y="81"/>
      <point x="717" y="71" type="curve"/>
      <point x="717" y="51"/>
      <point x="718" y="31"/>
      <point x="721" y="11" type="curve"/>
      <point x="692" y="14"/>
      <point x="663" y="15"/>
    </contour>
  </outline>
</glyph>
<glyph name="uni23A5" format="2">
  <advance width="356"/>
  <unicode hex="23A5"/>
  <outline>
    <contour>
      <point x="181" y="893" type="line"/>
      <point x="181" y="0" type="line"/>
      <point x="248" y="0" type="line"/>
      <point x="248" y="893" type="line"/>
    </contour>
  </outline>
</glyph>
<glyph name="uni23AC" format="2">
  <advance width="400"/>
  <unicode hex="23AC"/>
  <outline>
    <contour>
      <point x="283" y="444" type="line"/>
      <point x="234" y="423"/>
      <point x="183" y="368"/>
      <point x="183" y="277" type="curve" smooth="yes"/>
      <point x="183" y="189"/>
      <point x="211" y="167"/>
      <point x="211" y="58" type="curve" smooth="yes"/>
      <point x="211" y="0" type="line"/>
      <point x="291" y="0" type="line"/>
      <point x="291" y="68" type="line" smooth="yes"/>
      <point x="291" y="163"/>
      <point x="266" y="217"/>
      <point x="266" y="293" type="curve" smooth="yes"/>
      <point x="266" y="343"/>
      <point x="289" y="432"/>
      <point x="388" y="439" type="curve"/>
      <point x="388" y="454" type="line"/>
      <point x="289" y="461"/>
      <point x="266" y="550"/>
      <point x="266" y="600" type="curve" smooth="yes"/>
      <point x="266" y="676"/>
      <point x="291" y="730"/>
      <point x="291" y="825" type="curve" smooth="yes"/>
      <point x="291" y="893" type="line"/>
      <point x="211" y="893" type="line"/>
      <point x="211" y="835" type="line" smooth="yes"/>
      <point x="211" y="726"/>
      <point x="183" y="704"/>
      <point x="183" y="616" type="curve" smooth="yes"/>
      <point x="183" y="525"/>
      <point x="234" y="470"/>
      <point x="283" y="449" type="curve"/>
    </contour>
  </outline>
</glyph>
<glyph name="uni25D5" format="2">
  <advance width="564"/>
  <unicode hex="25D5"/>
  <outline>
    <contour>
      <point x="49" y="219" type="curve" smooth="yes"/>
      <point x="49" y="90.1883"/>
      <point x="152.541" y="-15"/>
      <point x="282" y="-15" type="curve" smooth="yes"/>
      <point x="411.424" y="-15"/>
      <point x="516" y="89.8868"/>
      <point x="516" y="219" type="curve" smooth="yes"/>
      <point x="516" y="347.763"/>
      <point x="410.775" y="452"/>
      <point x="282" y="452" type="curve" smooth="yes"/>
      <point x="153.45" y="452"/>
      <point x="49" y="347.905"/>
    </contour>
    <contour>
      <point x="60" y="219" type="line"/>
      <point x="60" y="338.678"/>
      <point x="162.322" y="441"/>
      <point x="282" y="441" type="curve"/>
      <point x="282" y="219" type="line"/>
    </contour>
  </outline>
</glyph>
<glyph name="uni03040300" format="2">
  <anchor x="-199" y="600" name="_top"/>
  <outline>
    <component base="macron" xOffset="-409"/>
    <contour>
      <point x="-250.009" y="744.506" type="line"/>
      <point x="-253.009" y="745.506"/>
      <point x="-258.009" y="746.506"/>
      <point x="-262.009" y="746.506" type="curve" smooth="yes"/>
      <point x="-289.009" y="746.506"/>
      <point x="-307.009" y="731.506"/>
      <point x="-314.009" y="725.506" type="curve"/>
      <point x="-315.009" y="715.506" type="line"/>
      <point x="-224.009" y="617.506" type="line" smooth="yes"/>
      <point x="-211.499" y="604.034"/>
      <point x="-206.009" y="599.506"/>
      <point x="-201.009" y="599.506" type="curve" smooth="yes"/>
      <point x="-195.009" y="599.506"/>
      <point x="-189.009" y="605.506"/>
      <point x="-189.009" y="609.506" type="curve" smooth="yes"/>
      <point x="-189.009" y="619.798"/>
      <point x="-192.454" y="629.395"/>
      <point x="-197.009" y="638.506" type="curve" smooth="yes"/>
    </contour>
  </outline>
</glyph>
